<svg width="512" height="256" viewBox="0 0 512 256" fill="none" xmlns="http://www.w3.org/2000/svg">
  <defs>
    <linearGradient id="tealGradLight" x1="0" y1="0" x2="256" y2="256" gradientUnits="userSpaceOnUse">
      <stop offset="0%" stop-color="#14b8a6"/>
      <stop offset="100%" stop-color="#22d3ee"/>
    </linearGradient>
  </defs>
  <!-- Icon (scaled to fit left side) -->
  <g transform="translate(16, 16) scale(0.875)">
    <circle cx="128" cy="128" r="120" fill="url(#tealGradLight)"/>
    <circle cx="185" cy="58" r="22" fill="#fbbf24" opacity="0.9"/>
    <ellipse cx="122" cy="184" rx="62" ry="8" fill="white" opacity="0.95"/>
    <circle cx="118" cy="72" r="14" fill="white" opacity="0.95"/>
    <path d="M118 86 L114 98 L108 128 L120 132 L132 128 L126 98 Z" fill="white" opacity="0.95"/>
    <path d="M110 128 L100 158 L98 176 L104 176 L108 158 L114 132" fill="white" opacity="0.95"/>
    <path d="M124 128 L134 156 L138 176 L144 176 L138 156 L128 132" fill="white" opacity="0.95"/>
    <path d="M114 96 L100 78 L94 70 L98 68 L104 76 L118 92" fill="white" opacity="0.95"/>
    <path d="M126 98 L138 108 L152 118 L150 122 L136 112 L124 102" fill="white" opacity="0.95"/>
    <line x1="96" y1="68" x2="162" y2="154" stroke="white" stroke-width="5" stroke-linecap="round" opacity="0.95"/>
    <path d="M162 154 L170 174 L162 182 L154 174 Z" fill="white" opacity="0.9"/>
    <rect x="86" y="62" width="18" height="5" rx="2.5" fill="white" opacity="0.9" transform="rotate(-10 95 64)"/>
    <path d="M30 206 C50 198, 70 198, 90 206 C110 214, 130 214, 150 206 C170 198, 190 198, 210 206 C220 210, 226 210, 232 206" stroke="white" stroke-width="3" fill="none" opacity="0.35" stroke-linecap="round"/>
    <path d="M38 220 C58 212, 78 212, 98 220 C118 228, 138 228, 158 220 C178 212, 198 212, 218 220" stroke="white" stroke-width="2.5" fill="none" opacity="0.22" stroke-linecap="round"/>
  </g>
  <!-- Text - lighter colors for dark backgrounds -->
  <text x="270" y="110" font-family="system-ui, -apple-system, 'Segoe UI', Roboto, Helvetica, Arial, sans-serif" font-size="38" font-weight="700" fill="#5eead4">Paddle</text>
  <text x="270" y="155" font-family="system-ui, -apple-system, 'Segoe UI', Roboto, Helvetica, Arial, sans-serif" font-size="38" font-weight="700" fill="#67e8f9">Conditions</text>
  <text x="270" y="180" font-family="system-ui, -apple-system, 'Segoe UI', Roboto, Helvetica, Arial, sans-serif" font-size="13" font-weight="600" letter-spacing="3" fill="#fbbf24">HOME ASSISTANT</text>
</svg>
