<svg width="1024" height="1024" viewBox="0 0 1024 1024" fill="none" xmlns="http://www.w3.org/2000/svg">
  <defs>
    <linearGradient id="bg" x1="160" y1="140" x2="864" y2="884" gradientUnits="userSpaceOnUse">
      <stop offset="0" stop-color="#1976D2"/>
      <stop offset="1" stop-color="#26A69A"/>
    </linearGradient>
    <linearGradient id="seg1" x1="348" y1="604" x2="424" y2="604" gradientUnits="userSpaceOnUse">
      <stop offset="0" stop-color="#43A047"/>
      <stop offset="1" stop-color="#66BB6A"/>
    </linearGradient>
    <linearGradient id="seg2" x1="460" y1="572" x2="564" y2="572" gradientUnits="userSpaceOnUse">
      <stop offset="0" stop-color="#FDD835"/>
      <stop offset="1" stop-color="#FFEE58"/>
    </linearGradient>
    <linearGradient id="seg3" x1="598" y1="604" x2="676" y2="604" gradientUnits="userSpaceOnUse">
      <stop offset="0" stop-color="#FB8C00"/>
      <stop offset="1" stop-color="#FFA726"/>
    </linearGradient>
    <filter id="shadow" x="0" y="0" width="1024" height="1024" filterUnits="userSpaceOnUse" color-interpolation-filters="sRGB">
      <feDropShadow dx="0" dy="18" stdDeviation="24" flood-color="#0B3554" flood-opacity="0.18"/>
    </filter>
  </defs>

  <rect x="96" y="96" width="832" height="832" rx="188" fill="url(#bg)"/>

  <g filter="url(#shadow)">
    <!-- Gauge -->
    <path d="M338 676C338 580.492 415.492 503 511 503C606.508 503 684 580.492 684 676" stroke="white" stroke-width="44" stroke-linecap="round"/>
    <path d="M359 676C363 622 390 581 429 550" stroke="url(#seg1)" stroke-width="26" stroke-linecap="round"/>
    <path d="M469 530C496 520 528 520 554 530" stroke="url(#seg2)" stroke-width="26" stroke-linecap="round"/>
    <path d="M592 549C630 578 658 621 663 676" stroke="url(#seg3)" stroke-width="26" stroke-linecap="round"/>

    <!-- Paddle -->
    <g>
      <rect x="493" y="330" width="38" height="308" rx="19" fill="white"/>
      <path d="M447 236C447 190.16 484.16 153 530 153C575.84 153 613 190.16 613 236V324C613 357.137 586.137 384 553 384H507C473.863 384 447 357.137 447 324V236Z" fill="white"/>
      <path d="M479 130C489 117 505 108 530 108C553 108 571 116 581 130C552 141 525 146 479 130Z" fill="white" fill-opacity="0.14"/>
    </g>

    <!-- Center hub -->
    <circle cx="512" cy="676" r="20" fill="white"/>
  </g>
</svg>
